<?xml version="1.0" encoding="utf-8" standalone="no"?>
<!DOCTYPE svg PUBLIC "-//W3C//DTD SVG 1.1//EN"
  "http://www.w3.org/Graphics/SVG/1.1/DTD/svg11.dtd">
<!-- Created with matplotlib (https://matplotlib.org/) -->
<svg height="345.6pt" version="1.1" viewBox="0 0 460.8 345.6" width="460.8pt" xmlns="http://www.w3.org/2000/svg" xmlns:xlink="http://www.w3.org/1999/xlink">
 <defs>
  <style type="text/css">
*{stroke-linecap:butt;stroke-linejoin:round;}
  </style>
 </defs>
 <g id="figure_1">
  <g id="patch_1">
   <path d="M 0 345.6 
L 460.8 345.6 
L 460.8 0 
L 0 0 
z
" style="fill:#ffffff;"/>
  </g>
  <g id="axes_1">
   <g id="patch_2">
    <path d="M 57.6 307.584 
L 414.72 307.584 
L 414.72 41.472 
L 57.6 41.472 
z
" style="fill:#ffffff;"/>
   </g>
   <g id="matplotlib.axis_1">
    <g id="xtick_1">
     <g id="line2d_1">
      <defs>
       <path d="M 0 0 
L 0 3.5 
" id="m5a96870a4a" style="stroke:#000000;stroke-width:0.8;"/>
      </defs>
      <g>
       <use style="stroke:#000000;stroke-width:0.8;" x="112.237652" xlink:href="#m5a96870a4a" y="307.584"/>
      </g>
     </g>
     <g id="text_1">
      <text style="font-family:DejaVu Sans;font-size:16px;font-style:normal;font-weight:bold;text-anchor:middle;" transform="rotate(-0, 112.237652, 326.7415)" x="112.237652" y="326.7415">−8</text>
     </g>
    </g>
    <g id="xtick_2">
     <g id="line2d_2">
      <g>
       <use style="stroke:#000000;stroke-width:0.8;" x="182.054633" xlink:href="#m5a96870a4a" y="307.584"/>
      </g>
     </g>
     <g id="text_2">
      <text style="font-family:DejaVu Sans;font-size:16px;font-style:normal;font-weight:bold;text-anchor:middle;" transform="rotate(-0, 182.054633, 326.7415)" x="182.054633" y="326.7415">−6</text>
     </g>
    </g>
    <g id="xtick_3">
     <g id="line2d_3">
      <g>
       <use style="stroke:#000000;stroke-width:0.8;" x="251.871613" xlink:href="#m5a96870a4a" y="307.584"/>
      </g>
     </g>
     <g id="text_3">
      <text style="font-family:DejaVu Sans;font-size:16px;font-style:normal;font-weight:bold;text-anchor:middle;" transform="rotate(-0, 251.871613, 326.7415)" x="251.871613" y="326.7415">−4</text>
     </g>
    </g>
    <g id="xtick_4">
     <g id="line2d_4">
      <g>
       <use style="stroke:#000000;stroke-width:0.8;" x="321.688594" xlink:href="#m5a96870a4a" y="307.584"/>
      </g>
     </g>
     <g id="text_4">
      <text style="font-family:DejaVu Sans;font-size:16px;font-style:normal;font-weight:bold;text-anchor:middle;" transform="rotate(-0, 321.688594, 326.7415)" x="321.688594" y="326.7415">−2</text>
     </g>
    </g>
    <g id="xtick_5">
     <g id="line2d_5">
      <g>
       <use style="stroke:#000000;stroke-width:0.8;" x="391.505575" xlink:href="#m5a96870a4a" y="307.584"/>
      </g>
     </g>
     <g id="text_5">
      <text style="font-family:DejaVu Sans;font-size:16px;font-style:normal;font-weight:bold;text-anchor:middle;" transform="rotate(-0, 391.505575, 326.7415)" x="391.505575" y="326.7415">0</text>
     </g>
    </g>
    <g id="text_6">
     <text style="font-family:DejaVu Sans;font-size:16px;font-style:normal;font-weight:normal;text-anchor:middle;" transform="rotate(-0, 236.16, 346.2265)" x="236.16" y="346.2265">Change in groundwater level (meters)</text>
    </g>
   </g>
   <g id="matplotlib.axis_2">
    <g id="ytick_1">
     <g id="line2d_6">
      <defs>
       <path d="M 0 0 
L -3.5 0 
" id="m9734fa364f" style="stroke:#000000;stroke-width:0.8;"/>
      </defs>
      <g>
       <use style="stroke:#000000;stroke-width:0.8;" x="57.6" xlink:href="#m9734fa364f" y="307.087668"/>
      </g>
     </g>
     <g id="text_7">
      <text style="font-family:DejaVu Sans;font-size:16px;font-style:normal;font-weight:bold;text-anchor:end;" transform="rotate(-0, 50.6, 313.166418)" x="50.6" y="313.166418">−2.0</text>
     </g>
    </g>
    <g id="ytick_2">
     <g id="line2d_7">
      <g>
       <use style="stroke:#000000;stroke-width:0.8;" x="57.6" xlink:href="#m9734fa364f" y="244.232262"/>
      </g>
     </g>
     <g id="text_8">
      <text style="font-family:DejaVu Sans;font-size:16px;font-style:normal;font-weight:bold;text-anchor:end;" transform="rotate(-0, 50.6, 250.311012)" x="50.6" y="250.311012">−1.5</text>
     </g>
    </g>
    <g id="ytick_3">
     <g id="line2d_8">
      <g>
       <use style="stroke:#000000;stroke-width:0.8;" x="57.6" xlink:href="#m9734fa364f" y="181.376856"/>
      </g>
     </g>
     <g id="text_9">
      <text style="font-family:DejaVu Sans;font-size:16px;font-style:normal;font-weight:bold;text-anchor:end;" transform="rotate(-0, 50.6, 187.455606)" x="50.6" y="187.455606">−1.0</text>
     </g>
    </g>
    <g id="ytick_4">
     <g id="line2d_9">
      <g>
       <use style="stroke:#000000;stroke-width:0.8;" x="57.6" xlink:href="#m9734fa364f" y="118.521449"/>
      </g>
     </g>
     <g id="text_10">
      <text style="font-family:DejaVu Sans;font-size:16px;font-style:normal;font-weight:bold;text-anchor:end;" transform="rotate(-0, 50.6, 124.600199)" x="50.6" y="124.600199">−0.5</text>
     </g>
    </g>
    <g id="ytick_5">
     <g id="line2d_10">
      <g>
       <use style="stroke:#000000;stroke-width:0.8;" x="57.6" xlink:href="#m9734fa364f" y="55.666043"/>
      </g>
     </g>
     <g id="text_11">
      <text style="font-family:DejaVu Sans;font-size:16px;font-style:normal;font-weight:bold;text-anchor:end;" transform="rotate(-0, 50.6, 61.744793)" x="50.6" y="61.744793">0.0</text>
     </g>
    </g>
    <g id="text_12">
     <text style="font-family:DejaVu Sans;font-size:16px;font-style:normal;font-weight:normal;" transform="translate(-16.394 273.26175)rotate(-90)">Change in water storage</text>
     <text style="font-family:DejaVu Sans;font-size:16px;font-style:normal;font-weight:normal;" transform="translate(1.5225 375.7705)rotate(-90)">(meters of free-standing water, from gravity data)</text>
    </g>
   </g>
   <g id="line2d_11">
    <defs>
     <path d="M 0 1.5 
C 0.397805 1.5 0.77937 1.341951 1.06066 1.06066 
C 1.341951 0.77937 1.5 0.397805 1.5 0 
C 1.5 -0.397805 1.341951 -0.77937 1.06066 -1.06066 
C 0.77937 -1.341951 0.397805 -1.5 0 -1.5 
C -0.397805 -1.5 -0.77937 -1.341951 -1.06066 -1.06066 
C -1.341951 -0.77937 -1.5 -0.397805 -1.5 0 
C -1.5 0.397805 -1.341951 0.77937 -1.06066 1.06066 
C -0.77937 1.341951 -0.397805 1.5 0 1.5 
z
" id="maa4f0ba381" style="stroke:#1f77b4;"/>
    </defs>
    <g clip-path="url(#p360f5cb829)">
     <use style="fill:#1f77b4;stroke:#1f77b4;" x="391.505575" xlink:href="#maa4f0ba381" y="55.666043"/>
     <use style="fill:#1f77b4;stroke:#1f77b4;" x="256.057002" xlink:href="#maa4f0ba381" y="165.205465"/>
     <use style="fill:#1f77b4;stroke:#1f77b4;" x="80.814425" xlink:href="#maa4f0ba381" y="287.886017"/>
    </g>
   </g>
   <g id="line2d_12">
    <path clip-path="url(#p360f5cb829)" d="M 73.832727 295.488 
L 109.905455 268.608 
L 145.978182 241.728 
L 182.050909 214.848 
L 218.123636 187.968 
L 254.196364 161.088 
L 290.269091 134.208 
L 326.341818 107.328 
L 362.414545 80.448 
L 398.487273 53.568 
" style="fill:none;stroke:#ff7f0e;stroke-linecap:square;stroke-width:1.5;"/>
   </g>
   <g id="patch_3">
    <path d="M 57.6 307.584 
L 57.6 41.472 
" style="fill:none;stroke:#000000;stroke-linecap:square;stroke-linejoin:miter;stroke-width:0.8;"/>
   </g>
   <g id="patch_4">
    <path d="M 414.72 307.584 
L 414.72 41.472 
" style="fill:none;stroke:#000000;stroke-linecap:square;stroke-linejoin:miter;stroke-width:0.8;"/>
   </g>
   <g id="patch_5">
    <path d="M 57.6 307.584 
L 414.72 307.584 
" style="fill:none;stroke:#000000;stroke-linecap:square;stroke-linejoin:miter;stroke-width:0.8;"/>
   </g>
   <g id="patch_6">
    <path d="M 57.6 41.472 
L 414.72 41.472 
" style="fill:none;stroke:#000000;stroke-linecap:square;stroke-linejoin:miter;stroke-width:0.8;"/>
   </g>
   <g id="text_13">
    <text style="font-family:DejaVu Sans;font-size:19.2px;font-style:normal;font-weight:normal;text-anchor:middle;" transform="rotate(-0, 236.16, 35.472)" x="236.16" y="35.472">T1-S1</text>
   </g>
  </g>
  <g id="text_14">
   <text style="font-family:DejaVu Sans;font-size:16px;font-style:normal;font-weight:bold;text-anchor:start;" transform="rotate(-0, 115.2, 51.84)" x="115.2" y="51.84">Sy = 0.21 ± 0.01</text>
  </g>
  <g id="text_15">
   <text style="font-family:DejaVu Sans;font-size:16px;font-style:normal;font-weight:bold;text-anchor:start;" transform="rotate(-0, 115.2, 65.664)" x="115.2" y="65.664">r^2 = 1.00</text>
  </g>
 </g>
 <defs>
  <clipPath id="p360f5cb829">
   <rect height="266.112" width="357.12" x="57.6" y="41.472"/>
  </clipPath>
 </defs>
</svg>
